<svg width="33" height="33" viewBox="0 0 33 33" fill="none" xmlns="http://www.w3.org/2000/svg">
<rect width="33" height="33" rx="2" fill="#E9FCD1"/>
<path d="M11.8296 17.6667L12.7189 15.1994L13.6062 17.6667H11.8296ZM20.7 16.5H21.75V18.8333H20.7C20.1201 18.8333 19.65 18.311 19.65 17.6667C19.65 17.0223 20.1201 16.5 20.7 16.5ZM25.95 6H7.05C6.47011 6 6 6.52234 6 7.16667V25.8333C6 26.4777 6.47011 27 7.05 27H25.95C26.5299 27 27 26.4777 27 25.8333V7.16667C27 6.52234 26.5299 6 25.95 6ZM17.1279 21.1667H14.8651L14.4451 20H10.9906L10.5706 21.1667H8.30892L9.56787 17.669L9.56892 17.6667L11.6689 11.8333H13.7689L17.1279 21.1667ZM21.75 11.8333H23.85V21.1667H20.7C18.9603 21.1667 17.55 19.5997 17.55 17.6667C17.55 15.7336 18.9603 14.1667 20.7 14.1667H21.75V11.8333Z" fill="black"/>
</svg>
