<svg width="33" height="33" viewBox="0 0 33 33" fill="none" xmlns="http://www.w3.org/2000/svg">
<rect width="33" height="33" rx="2" fill="#E9FCD1"/>
<path d="M13.875 22.625H16.5V17.3239L13 14.2723L9.5 17.3239V22.625H12.125V19.125H13.875V22.625ZM24.375 24.375H8.625C8.14175 24.375 7.75 23.9833 7.75 23.5V16.926C7.75 16.6731 7.85938 16.4325 8.04997 16.2664L11.25 13.4763V9.5C11.25 9.01675 11.6418 8.625 12.125 8.625H24.375C24.8583 8.625 25.25 9.01675 25.25 9.5V23.5C25.25 23.9833 24.8583 24.375 24.375 24.375ZM20 15.625V17.375H21.75V15.625H20ZM20 19.125V20.875H21.75V19.125H20ZM20 12.125V13.875H21.75V12.125H20ZM16.5 12.125V13.875H18.25V12.125H16.5Z" fill="black"/>
</svg>
