<svg width="38" height="38" viewBox="0 0 38 38" fill="none" xmlns="http://www.w3.org/2000/svg">
<rect x="0.5" y="0.5" width="37" height="37" rx="2.5" fill="#FBFAF8"/>
<rect x="0.5" y="0.5" width="37" height="37" rx="2.5" stroke="#229D7E"/>
<path d="M16.7715 29.664V25.2C16.7715 23.4899 18.1062 22.1435 20.0811 21.3761C18.8419 20.9173 17.5007 20.6667 16.1006 20.6667C13.5649 20.6667 11.2226 21.4891 9.32877 22.88C10.5083 26.2059 13.3001 28.776 16.7715 29.664ZM28.6851 24.7812C28.1576 24.0701 26.3927 23.3333 24.1509 23.3333C21.4593 23.3333 19.4549 24.3956 19.4549 25.2V30C23.3801 30 26.8133 27.9061 28.6851 24.7812ZM16.1677 18.6667C17.8349 18.6667 19.1866 17.3235 19.1866 15.6667C19.1866 14.0098 17.8349 12.6667 16.1677 12.6667C14.5004 12.6667 13.1488 14.0098 13.1488 15.6667C13.1488 17.3235 14.5004 18.6667 16.1677 18.6667ZM24.1509 20C25.633 20 26.8344 18.8061 26.8344 17.3333C26.8344 15.8606 25.633 14.6667 24.1509 14.6667C22.6689 14.6667 21.4675 15.8606 21.4675 17.3333C21.4675 18.8061 22.6689 20 24.1509 20ZM19.4549 32.6667C12.0448 32.6667 6.03772 26.6971 6.03772 19.3333C6.03772 11.9695 12.0448 6 19.4549 6C26.865 6 32.8721 11.9695 32.8721 19.3333C32.8721 26.6971 26.865 32.6667 19.4549 32.6667Z" fill="black"/>
</svg>
