<svg width="48" height="48" viewBox="0 0 48 48" fill="none" xmlns="http://www.w3.org/2000/svg">
<rect width="48" height="48" rx="3" fill="#E9FCD1"/>
<path d="M26.7434 4.18884C16.8502 2.82536 7.46766 8.9701 4.76128 18.5851C2.0549 28.2002 6.85422 38.3384 16.0054 42.3378C15.8853 40.8016 15.9947 39.256 16.33 37.7522C16.6993 36.0748 18.9224 26.8264 18.9224 26.8264C18.4794 25.8346 18.2579 24.758 18.2732 23.6718C18.2732 20.7018 19.9871 18.4859 22.1194 18.4859C22.8944 18.4744 23.6362 18.8006 24.1516 19.3796C24.667 19.9587 24.9052 20.7334 24.804 21.502C24.804 23.3024 23.6472 26.0262 23.0456 28.5806C22.8028 29.5312 23.0262 30.5406 23.6474 31.3C24.2686 32.0592 25.2138 32.4778 26.1934 32.4278C29.9888 32.4278 32.535 27.565 32.535 21.8252C32.535 17.4241 29.6196 14.131 24.2486 14.131C21.652 14.0306 19.1278 14.9992 17.2645 16.8109C15.4011 18.6225 14.3617 21.119 14.3885 23.718C14.3313 25.1444 14.7913 26.5434 15.6839 27.6574C16.0272 27.9128 16.1597 28.365 16.0085 28.7654C15.9162 29.1346 15.6839 30.0118 15.5916 30.335C15.5526 30.556 15.4112 30.7456 15.2103 30.8456C15.0095 30.9458 14.773 30.9448 14.5731 30.8428C11.8038 29.7348 10.4991 26.6878 10.4991 23.2102C10.4991 17.5164 15.2685 10.6994 24.8072 10.6994C32.3996 10.6994 37.446 16.2546 37.446 22.1944C37.446 30.0118 33.0936 35.8902 26.6596 35.8902C24.7052 35.9522 22.8546 35.0122 21.7518 33.3972C21.7518 33.3972 20.5948 38.0292 20.367 38.9062C19.902 40.4198 19.2156 41.8562 18.3301 43.1688C20.1754 43.7286 22.0942 44.0088 24.0226 44C29.3272 44.0034 34.4156 41.8968 38.1658 38.144C41.916 34.3914 44.0198 29.3008 44.0138 23.995C44.008 14.0061 36.6366 5.55232 26.7434 4.18884Z" fill="black"/>
</svg>
